<?xml version="1.0" encoding="UTF-8" ?>
<svg version="1.1" width="32" height="32" xmlns="http://www.w3.org/2000/svg" shape-rendering="crispEdges">
<rect x="0" y="0" width="32" height="7" fill="#000000" />
<rect x="0" y="7" width="4" height="25" fill="#000000" />
<rect x="4" y="7" width="1" height="13" fill="#78DAEE" />
<rect x="5" y="7" width="1" height="14" fill="#90DAEA" />
<rect x="6" y="7" width="26" height="6" fill="#000000" />
<rect x="6" y="13" width="20" height="1" fill="#000000" />
<rect x="26" y="13" width="2" height="2" fill="#90DAEA" />
<rect x="28" y="13" width="4" height="19" fill="#000000" />
<rect x="6" y="14" width="8" height="18" fill="#000000" />
<rect x="14" y="14" width="3" height="3" fill="#FFFFFF" />
<rect x="17" y="14" width="9" height="1" fill="#000000" />
<rect x="17" y="15" width="1" height="3" fill="#999999" />
<rect x="18" y="15" width="8" height="1" fill="#000000" />
<rect x="26" y="15" width="1" height="12" fill="#90DAEA" />
<rect x="27" y="15" width="1" height="12" fill="#78DAEE" />
<rect x="18" y="16" width="1" height="3" fill="#525252" />
<rect x="19" y="16" width="7" height="16" fill="#000000" />
<rect x="14" y="17" width="1" height="15" fill="#000000" />
<rect x="15" y="17" width="2" height="1" fill="#999999" />
<rect x="15" y="18" width="1" height="14" fill="#000000" />
<rect x="16" y="18" width="2" height="1" fill="#525252" />
<rect x="16" y="19" width="3" height="13" fill="#000000" />
<rect x="4" y="20" width="1" height="1" fill="#90DAEA" />
<rect x="4" y="21" width="2" height="11" fill="#000000" />
<rect x="26" y="27" width="2" height="5" fill="#000000" />
</svg>